<svg width="188" height="28" viewBox="0 0 188 28" fill="none" xmlns="http://www.w3.org/2000/svg">
<path d="M0 13.9987C0 11.614 0.405897 9.50842 1.21769 7.68189C2.05485 5.82998 3.17107 4.37129 4.56634 3.30581C5.98698 2.24033 7.54714 1.44122 9.24684 0.908485C10.9465 0.375745 12.7604 0.109375 14.6884 0.109375C17.555 0.109375 20.3075 0.667484 22.9459 1.7837V8.44294C20.891 7.0223 18.4429 6.31199 15.6017 6.31199C13.2424 6.31199 11.251 6.95888 9.62737 8.25268C8.02915 9.52111 7.23004 11.4364 7.23004 13.9987C7.23004 15.5461 7.48372 16.878 7.9911 17.9942C8.52383 19.0851 9.20879 19.8968 10.0459 20.4296C10.9085 20.937 11.7456 21.3048 12.5574 21.5331C13.3692 21.7361 14.2191 21.8375 15.107 21.8375C15.8173 21.8375 16.4261 21.7741 16.9335 21.6473V12.6668H23.5928V26.0995C20.7261 27.2918 17.7834 27.8879 14.7645 27.8879C12.8111 27.8879 10.9719 27.6089 9.24684 27.0508C7.52178 26.4927 5.96161 25.6682 4.56634 24.5773C3.17107 23.4865 2.05485 22.0405 1.21769 20.2393C0.405897 18.4128 0 16.3326 0 13.9987Z" fill="#0A0A0A"/>
<path d="M34.5603 27.3171H27.5205V0.680167H38.7461C40.1921 0.680167 41.524 0.832378 42.7417 1.1368C43.9847 1.41586 45.139 1.88517 46.2045 2.54476C47.2953 3.17897 48.1452 4.10492 48.754 5.32261C49.3628 6.5403 49.6673 7.98631 49.6673 9.66064C49.6673 13.6181 47.9676 16.2818 44.5682 17.6517L51.9124 27.3171H43.9593L37.6045 18.6411H34.5603V27.3171ZM34.5603 6.76862V12.9332H39.0505C40.0906 12.9332 40.9151 12.6668 41.524 12.1341C42.1328 11.6013 42.4372 10.8403 42.4372 9.8509C42.4372 8.86153 42.1328 8.10047 41.524 7.56773C40.9151 7.03499 40.0906 6.76862 39.0505 6.76862H34.5603Z" fill="#0A0A0A"/>
<path d="M56.1446 23.8924C53.6585 21.2287 52.4154 17.9308 52.4154 13.9987C52.4154 10.0665 53.6585 6.76862 56.1446 4.10492C58.6307 1.44122 62.1442 0.109375 66.6852 0.109375C71.2262 0.109375 74.7397 1.44122 77.2258 4.10492C79.712 6.76862 80.955 10.0665 80.955 13.9987C80.955 17.9308 79.712 21.2287 77.2258 23.8924C74.7397 26.5561 71.2262 27.8879 66.6852 27.8879C62.1442 27.8879 58.6307 26.5561 56.1446 23.8924ZM71.8604 19.3641C73.1034 17.9942 73.725 16.2057 73.725 13.9987C73.725 11.7916 73.1034 10.0031 71.8604 8.63321C70.6427 7.26331 68.9176 6.57836 66.6852 6.57836C64.4528 6.57836 62.715 7.26331 61.472 8.63321C60.2543 10.0031 59.6454 11.7916 59.6454 13.9987C59.6454 16.2057 60.2543 17.9942 61.472 19.3641C62.715 20.734 64.4528 21.419 66.6852 21.419C68.9176 21.419 70.6427 20.734 71.8604 19.3641Z" fill="#0A0A0A"/>
<path d="M100.915 0.680167H107.954V17.157C107.954 19.0851 107.612 20.7721 106.927 22.2181C106.242 23.6387 105.316 24.7549 104.149 25.5667C102.982 26.3531 101.714 26.9366 100.344 27.3171C98.9739 27.6977 97.5152 27.8879 95.9678 27.8879C94.4203 27.8879 92.9616 27.6977 91.5917 27.3171C90.2218 26.9366 88.9533 26.3531 87.7864 25.5667C86.6194 24.7549 85.6935 23.6387 85.0085 22.2181C84.3236 20.7721 83.9811 19.0851 83.9811 17.157V0.680167H91.0209V16.7765C91.0209 19.9983 92.6698 21.6092 95.9678 21.6092C99.2657 21.6092 100.915 19.9983 100.915 16.7765V0.680167Z" fill="#0A0A0A"/>
<path d="M112.332 0.680167H122.873C130.61 0.680167 134.479 3.72439 134.479 9.81285C134.479 15.8506 130.61 18.8948 122.873 18.9455H119.372V27.3171H112.332V0.680167ZM123.215 12.8571C125.904 12.8571 127.249 11.8423 127.249 9.81285C127.249 7.78336 125.904 6.76862 123.215 6.76862H119.372V12.8571H123.215Z" fill="#0A0A0A"/>
<path d="M164.882 14.4172C164.273 18.2225 162.535 21.419 159.669 24.0066C156.802 26.5941 153.174 27.8879 148.786 27.8879C144.321 27.8879 140.985 26.5054 138.778 23.7402C136.596 20.975 135.822 17.5883 136.457 13.5801C137.065 9.77479 138.803 6.57836 141.67 3.99076C144.536 1.40317 148.164 0.109375 152.553 0.109375C155.445 0.109375 157.906 0.781641 159.935 2.12617C161.99 3.44534 163.423 5.18309 164.235 7.33941C165.072 9.49574 165.288 11.855 164.882 14.4172ZM143.572 14.227C143.243 16.3326 143.56 18.0576 144.524 19.4022C145.488 20.7467 147.048 21.419 149.204 21.419C151.538 21.419 153.453 20.7213 154.95 19.3261C156.472 17.9308 157.411 16.0789 157.766 13.7703C158.096 11.6648 157.779 9.93969 156.815 8.59516C155.851 7.25062 154.291 6.57836 152.134 6.57836C149.8 6.57836 147.885 7.27599 146.388 8.67126C144.892 10.0665 143.953 11.9184 143.572 14.227Z" fill="#0A0A0A"/>
<path d="M166.919 7.94826C166.919 5.4114 167.857 3.47071 169.735 2.12617C171.637 0.781641 174.047 0.109375 176.965 0.109375C180.44 0.109375 183.421 0.819694 185.907 2.24033V8.70932C183.624 6.98425 180.833 6.14709 177.535 6.19783C175.278 6.2232 174.149 6.79399 174.149 7.9102C174.149 8.44294 174.491 8.92495 175.176 9.35621C175.861 9.76211 176.711 10.1173 177.726 10.4217C178.766 10.7007 179.882 11.094 181.074 11.6013C182.267 12.0833 183.37 12.6288 184.385 13.2376C185.425 13.8464 186.288 14.7217 186.973 15.8632C187.658 16.9795 188 18.2733 188 19.7446C188 25.1735 184.448 27.8879 177.345 27.8879C173.464 27.8879 170.052 27.0761 167.109 25.4526V18.7933C170.026 20.7974 173.261 21.7995 176.812 21.7995C178.233 21.7995 179.248 21.6726 179.857 21.419C180.466 21.1399 180.77 20.6706 180.77 20.011C180.77 19.3261 180.288 18.7299 179.324 18.2225C178.385 17.7152 177.231 17.2458 175.861 16.8146C174.517 16.3579 173.159 15.8252 171.79 15.2163C170.445 14.6075 169.291 13.6816 168.327 12.4385C167.388 11.1954 166.919 9.69869 166.919 7.94826Z" fill="#0A0A0A"/>
</svg>
